<mxfile host="app.diagrams.net" modified="2022-02-11T00:08:36.314Z" agent="5.0 (Macintosh; Intel Mac OS X 10_15_7) AppleWebKit/537.36 (KHTML, like Gecko) Chrome/98.0.4758.80 Safari/537.36" etag="OlSNzmXrzESK5yBqv-dk" version="14.9.3" type="github">
  <diagram id="kgpKYQtTHZ0yAKxKKP6v" name="Page-1">
    <mxGraphModel dx="2719" dy="439" grid="1" gridSize="10" guides="1" tooltips="1" connect="1" arrows="1" fold="1" page="1" pageScale="1" pageWidth="850" pageHeight="1100" math="0" shadow="0">
      <root>
        <mxCell id="0" />
        <mxCell id="1" parent="0" />
        <mxCell id="3nuBFxr9cyL0pnOWT2aG-1" value=":Object" style="shape=umlLifeline;perimeter=lifelinePerimeter;container=1;collapsible=0;recursiveResize=0;rounded=0;shadow=0;strokeWidth=1;" parent="1" vertex="1">
          <mxGeometry x="120" y="80" width="100" height="300" as="geometry" />
        </mxCell>
        <mxCell id="3nuBFxr9cyL0pnOWT2aG-2" value="" style="points=[];perimeter=orthogonalPerimeter;rounded=0;shadow=0;strokeWidth=1;" parent="3nuBFxr9cyL0pnOWT2aG-1" vertex="1">
          <mxGeometry x="45" y="65" width="10" height="190" as="geometry" />
        </mxCell>
        <mxCell id="3nuBFxr9cyL0pnOWT2aG-3" value="dispatch" style="verticalAlign=bottom;startArrow=oval;endArrow=block;startSize=8;shadow=0;strokeWidth=1;" parent="3nuBFxr9cyL0pnOWT2aG-1" target="3nuBFxr9cyL0pnOWT2aG-2" edge="1">
          <mxGeometry relative="1" as="geometry">
            <mxPoint x="-15" y="70" as="sourcePoint" />
          </mxGeometry>
        </mxCell>
        <mxCell id="3nuBFxr9cyL0pnOWT2aG-4" value="" style="points=[];perimeter=orthogonalPerimeter;rounded=0;shadow=0;strokeWidth=1;" parent="3nuBFxr9cyL0pnOWT2aG-1" vertex="1">
          <mxGeometry x="50" y="120" width="10" height="80" as="geometry" />
        </mxCell>
        <mxCell id="3nuBFxr9cyL0pnOWT2aG-5" value=":Object" style="shape=umlLifeline;perimeter=lifelinePerimeter;container=1;collapsible=0;recursiveResize=0;rounded=0;shadow=0;strokeWidth=1;" parent="1" vertex="1">
          <mxGeometry x="300" y="80" width="100" height="300" as="geometry" />
        </mxCell>
        <mxCell id="3nuBFxr9cyL0pnOWT2aG-6" value="" style="points=[];perimeter=orthogonalPerimeter;rounded=0;shadow=0;strokeWidth=1;" parent="3nuBFxr9cyL0pnOWT2aG-5" vertex="1">
          <mxGeometry x="45" y="80" width="10" height="160" as="geometry" />
        </mxCell>
        <mxCell id="3nuBFxr9cyL0pnOWT2aG-7" value="return" style="verticalAlign=bottom;endArrow=open;dashed=1;endSize=8;exitX=0;exitY=0.95;shadow=0;strokeWidth=1;" parent="1" source="3nuBFxr9cyL0pnOWT2aG-6" target="3nuBFxr9cyL0pnOWT2aG-2" edge="1">
          <mxGeometry relative="1" as="geometry">
            <mxPoint x="275" y="236" as="targetPoint" />
          </mxGeometry>
        </mxCell>
        <mxCell id="3nuBFxr9cyL0pnOWT2aG-8" value="dispatch" style="verticalAlign=bottom;endArrow=block;entryX=0;entryY=0;shadow=0;strokeWidth=1;" parent="1" source="3nuBFxr9cyL0pnOWT2aG-2" target="3nuBFxr9cyL0pnOWT2aG-6" edge="1">
          <mxGeometry relative="1" as="geometry">
            <mxPoint x="275" y="160" as="sourcePoint" />
          </mxGeometry>
        </mxCell>
        <mxCell id="3nuBFxr9cyL0pnOWT2aG-9" value="callback" style="verticalAlign=bottom;endArrow=block;entryX=1;entryY=0;shadow=0;strokeWidth=1;" parent="1" source="3nuBFxr9cyL0pnOWT2aG-6" target="3nuBFxr9cyL0pnOWT2aG-4" edge="1">
          <mxGeometry relative="1" as="geometry">
            <mxPoint x="240" y="200" as="sourcePoint" />
          </mxGeometry>
        </mxCell>
        <mxCell id="3nuBFxr9cyL0pnOWT2aG-10" value="return" style="verticalAlign=bottom;endArrow=open;dashed=1;endSize=8;exitX=1;exitY=0.95;shadow=0;strokeWidth=1;" parent="1" source="3nuBFxr9cyL0pnOWT2aG-4" target="3nuBFxr9cyL0pnOWT2aG-6" edge="1">
          <mxGeometry relative="1" as="geometry">
            <mxPoint x="240" y="257" as="targetPoint" />
          </mxGeometry>
        </mxCell>
        <mxCell id="KinQekzlaKYnHtgUIyCx-1" value="" style="verticalLabelPosition=bottom;verticalAlign=top;html=1;shape=mxgraph.basic.smiley" vertex="1" parent="1">
          <mxGeometry x="-10" y="240" width="40" height="40" as="geometry" />
        </mxCell>
        <mxCell id="KinQekzlaKYnHtgUIyCx-10" value="&lt;font style=&quot;font-size: 12px&quot;&gt;MongoDB&lt;/font&gt;" style="strokeWidth=2;html=1;shape=mxgraph.flowchart.database;whiteSpace=wrap;fontSize=20;" vertex="1" parent="1">
          <mxGeometry x="-1450" y="820" width="100" height="77.5" as="geometry" />
        </mxCell>
        <mxCell id="KinQekzlaKYnHtgUIyCx-29" value="Request" style="ellipse" vertex="1" parent="1">
          <mxGeometry x="-1495" y="410" width="175" height="30" as="geometry" />
        </mxCell>
        <mxCell id="KinQekzlaKYnHtgUIyCx-30" value="" style="rounded=1;" vertex="1" parent="1">
          <mxGeometry x="-1535" y="490" width="250" height="60" as="geometry" />
        </mxCell>
        <mxCell id="KinQekzlaKYnHtgUIyCx-31" value="" style="curved=1;noEdgeStyle=1;orthogonal=1;" edge="1" source="KinQekzlaKYnHtgUIyCx-29" target="KinQekzlaKYnHtgUIyCx-30" parent="1">
          <mxGeometry relative="1" as="geometry">
            <Array as="points" />
          </mxGeometry>
        </mxCell>
        <mxCell id="KinQekzlaKYnHtgUIyCx-32" value="" style="rounded=1;" vertex="1" parent="1">
          <mxGeometry x="-1535" y="607.5" width="250" height="60" as="geometry" />
        </mxCell>
        <mxCell id="KinQekzlaKYnHtgUIyCx-33" value="" style="curved=1;noEdgeStyle=1;orthogonal=1;" edge="1" target="KinQekzlaKYnHtgUIyCx-32" parent="1">
          <mxGeometry relative="1" as="geometry">
            <mxPoint x="-1410" y="550" as="sourcePoint" />
            <Array as="points">
              <mxPoint x="-1410" y="570" />
              <mxPoint x="-1410" y="608" />
            </Array>
          </mxGeometry>
        </mxCell>
        <mxCell id="KinQekzlaKYnHtgUIyCx-34" value="" style="rounded=1;" vertex="1" parent="1">
          <mxGeometry x="-1535" y="720" width="255" height="60" as="geometry" />
        </mxCell>
        <mxCell id="KinQekzlaKYnHtgUIyCx-35" value="" style="curved=1;noEdgeStyle=1;orthogonal=1;" edge="1" source="KinQekzlaKYnHtgUIyCx-32" target="KinQekzlaKYnHtgUIyCx-34" parent="1">
          <mxGeometry relative="1" as="geometry">
            <Array as="points">
              <mxPoint x="-1410" y="662" />
              <mxPoint x="-1410" y="720" />
            </Array>
          </mxGeometry>
        </mxCell>
        <mxCell id="KinQekzlaKYnHtgUIyCx-37" value="" style="curved=1;noEdgeStyle=1;orthogonal=1;" edge="1" source="KinQekzlaKYnHtgUIyCx-34" parent="1">
          <mxGeometry relative="1" as="geometry">
            <mxPoint x="-1410" y="820" as="targetPoint" />
            <Array as="points">
              <mxPoint x="-1410" y="792" />
            </Array>
          </mxGeometry>
        </mxCell>
        <mxCell id="KinQekzlaKYnHtgUIyCx-39" value="" style="curved=1;noEdgeStyle=1;orthogonal=1;" edge="1" parent="1" target="KinQekzlaKYnHtgUIyCx-34">
          <mxGeometry relative="1" as="geometry">
            <mxPoint x="-1420" y="549" as="sourcePoint" />
            <mxPoint x="-1420" y="718" as="targetPoint" />
            <Array as="points" />
          </mxGeometry>
        </mxCell>
        <mxCell id="KinQekzlaKYnHtgUIyCx-40" value="&lt;font style=&quot;font-size: 10px;&quot;&gt;API Layer&lt;/font&gt;" style="text;html=1;resizable=0;autosize=1;align=center;verticalAlign=middle;points=[];fillColor=none;strokeColor=none;rounded=0;fontSize=10;" vertex="1" parent="1">
          <mxGeometry x="-1535" y="500" width="60" height="20" as="geometry" />
        </mxCell>
        <mxCell id="KinQekzlaKYnHtgUIyCx-41" value="&lt;font style=&quot;font-size: 10px ; line-height: 100%&quot;&gt;Services Layer&lt;/font&gt;" style="text;html=1;resizable=0;autosize=1;align=center;verticalAlign=middle;points=[];fillColor=none;strokeColor=none;rounded=0;fontSize=20;" vertex="1" parent="1">
          <mxGeometry x="-1535" y="607.5" width="80" height="30" as="geometry" />
        </mxCell>
        <mxCell id="KinQekzlaKYnHtgUIyCx-42" value="&lt;font style=&quot;font-size: 10px ; line-height: 100%&quot;&gt;Data Access Layer&lt;/font&gt;" style="text;html=1;resizable=0;autosize=1;align=center;verticalAlign=middle;points=[];fillColor=none;strokeColor=none;rounded=0;fontSize=20;" vertex="1" parent="1">
          <mxGeometry x="-1535" y="720" width="100" height="30" as="geometry" />
        </mxCell>
        <mxCell id="KinQekzlaKYnHtgUIyCx-45" value="" style="endArrow=openThin;html=1;fontSize=10;startSize=11;endSize=8;strokeColor=#000000;strokeWidth=1;fixDash=1;snapToPoint=0;noJump=1;rounded=0;dashed=1;endFill=0;" edge="1" parent="1">
          <mxGeometry width="50" height="50" relative="1" as="geometry">
            <mxPoint x="-1380" y="716" as="sourcePoint" />
            <mxPoint x="-1380" y="667.5" as="targetPoint" />
          </mxGeometry>
        </mxCell>
        <mxCell id="KinQekzlaKYnHtgUIyCx-46" value="" style="endArrow=openThin;html=1;fontSize=10;startSize=11;endSize=8;strokeColor=#000000;strokeWidth=1;fixDash=1;snapToPoint=0;noJump=1;rounded=0;dashed=1;endFill=0;entryX=0.665;entryY=0.976;entryDx=0;entryDy=0;entryPerimeter=0;exitX=0.652;exitY=-0.064;exitDx=0;exitDy=0;exitPerimeter=0;" edge="1" parent="1" source="KinQekzlaKYnHtgUIyCx-34" target="KinQekzlaKYnHtgUIyCx-30">
          <mxGeometry width="50" height="50" relative="1" as="geometry">
            <mxPoint x="-1330" y="720" as="sourcePoint" />
            <mxPoint x="-1330" y="672" as="targetPoint" />
            <Array as="points" />
          </mxGeometry>
        </mxCell>
        <mxCell id="KinQekzlaKYnHtgUIyCx-48" value="" style="endArrow=openThin;html=1;fontSize=10;startSize=11;endSize=8;strokeColor=#000000;strokeWidth=1;fixDash=1;snapToPoint=0;noJump=1;rounded=0;dashed=1;endFill=0;" edge="1" parent="1">
          <mxGeometry width="50" height="50" relative="1" as="geometry">
            <mxPoint x="-1370" y="490" as="sourcePoint" />
            <mxPoint x="-1370" y="442" as="targetPoint" />
          </mxGeometry>
        </mxCell>
        <mxCell id="KinQekzlaKYnHtgUIyCx-50" value="" style="endArrow=openThin;html=1;fontSize=10;startSize=11;endSize=8;strokeColor=#000000;strokeWidth=1;fixDash=1;snapToPoint=0;noJump=1;rounded=0;dashed=1;endFill=0;" edge="1" parent="1">
          <mxGeometry width="50" height="50" relative="1" as="geometry">
            <mxPoint x="-1380" y="607" as="sourcePoint" />
            <mxPoint x="-1380" y="550" as="targetPoint" />
          </mxGeometry>
        </mxCell>
        <mxCell id="KinQekzlaKYnHtgUIyCx-52" value="" style="endArrow=openThin;html=1;fontSize=10;startSize=11;endSize=8;strokeColor=#000000;strokeWidth=1;fixDash=1;snapToPoint=0;noJump=1;rounded=0;dashed=1;endFill=0;" edge="1" parent="1">
          <mxGeometry width="50" height="50" relative="1" as="geometry">
            <mxPoint x="-1380" y="820" as="sourcePoint" />
            <mxPoint x="-1380" y="781.5" as="targetPoint" />
          </mxGeometry>
        </mxCell>
        <mxCell id="KinQekzlaKYnHtgUIyCx-55" value="" style="curved=1;noEdgeStyle=1;orthogonal=1;" edge="1" parent="1">
          <mxGeometry relative="1" as="geometry">
            <mxPoint x="-1680" y="450" as="sourcePoint" />
            <mxPoint x="-1640" y="450" as="targetPoint" />
            <Array as="points" />
          </mxGeometry>
        </mxCell>
      </root>
    </mxGraphModel>
  </diagram>
</mxfile>
